<!--?xml version="1.0" encoding="utf-8"?-->
<!-- Generator: Adobe Illustrator 18.1.1, SVG Export Plug-In . SVG Version: 6.00 Build 0)  -->

<svg version="1.1" id="_x32_" xmlns="http://www.w3.org/2000/svg" xmlns:xlink="http://www.w3.org/1999/xlink" x="0px" y="0px" viewBox="0 0 512 512" style="width: 256px; height: 256px; opacity: 1;" xml:space="preserve">
<style type="text/css">
	.st0{fill:#4B4B4B;}
</style>
<g>
	<path class="st0" d="M442.936,366.868l-35.243-74.72c0.094-2.239,0.176-4.472,0.176-6.73c0-43.072-16.022-82.397-42.422-112.368
		L229.469,328.54c-2.259,2.586-6.025,3.224-9.015,1.533c-2.99-1.69-4.378-5.248-3.33-8.516l54.358-168.762h-35.364l8.882-37.306
		c-2.404-0.101-4.814-0.17-7.236-0.17c-93.947,0-170.105,76.165-170.105,170.093c0,52.83,24.072,100.04,61.864,131.241v83.286
		c0,6.662,5.4,12.061,12.061,12.061H287.56c6.662,0,12.068-5.4,12.068-12.061v-14.332c0-8.062,6.542-14.622,14.597-14.622h72.164
		c8.068,0,14.597-6.542,14.597-14.603v-43.93c0-5.602,3.205-10.706,8.239-13.153l26.879-13.051
		C443.314,382.734,446.361,374.104,442.936,366.868z" style="fill: rgb(75, 75, 75);"></path>
	<polygon class="st0" points="254.796,269.408 416.877,85.545 338.99,85.545 382.403,0 291.749,0 259.823,134.067 296.927,134.067 	
		" style="fill: rgb(75, 75, 75);"></polygon>
</g>
</svg>
