<?xml version="1.0" encoding="UTF-8" standalone="no"?><!DOCTYPE svg PUBLIC "-//W3C//DTD SVG 1.1//EN" "http://www.w3.org/Graphics/SVG/1.1/DTD/svg11.dtd"><svg width="100%" height="100%" viewBox="0 0 512 512" version="1.1" xmlns="http://www.w3.org/2000/svg" xmlns:xlink="http://www.w3.org/1999/xlink" xml:space="preserve" xmlns:serif="http://www.serif.com/" style="fill-rule:evenodd;clip-rule:evenodd;stroke-linejoin:round;stroke-miterlimit:2;"><path id="path3" d="M133.441,0.914c-13.646,-0.141 -32.707,7.894 -42.357,17.543l-73.266,73.266c-9.65,9.65 -17.543,28.71 -17.543,42.357l0,354.021c0,13.647 11.164,24.812 24.811,24.812l288.617,0l114.48,3.652l58.73,0c13.647,0 24.812,-11.164 24.812,-24.811l0,-462.377c-0.001,-13.647 -11.166,-24.671 -24.812,-24.812l-353.473,-3.652Zm307.191,143.141l38.225,0l0,218.82l-35.711,0l0,-32.703c-9.836,24.046 -26.489,36.068 -49.961,36.068c-20.789,0 -36.716,-8.282 -47.781,-24.848c-11.065,-16.565 -16.598,-37.138 -16.598,-61.719c0,-22.871 5.755,-42.802 17.268,-59.795c11.512,-16.993 27.887,-25.488 49.123,-25.488c21.795,0 36.941,9.512 45.436,28.535l0,-78.871Zm-306.309,53.543c24.925,0 41.132,12.61 48.621,37.832c13.636,-25.222 32.469,-37.832 56.5,-37.832c16.319,0 29.451,4.863 39.398,14.588c9.948,9.725 14.922,21.801 14.922,36.229l0,114.461l-40.07,0l0,-100.834c0,-20.947 -9.724,-31.42 -29.172,-31.42c-11.289,0 -20.342,3.953 -27.16,11.861c-6.706,7.909 -10.059,19.719 -10.059,35.43l0,84.963l-40.574,0l0,-100.834c0,-21.268 -9.108,-31.902 -27.326,-31.902c-11.065,0 -20.4,4.276 -28,12.826c-7.489,8.55 -11.232,20.199 -11.232,34.947l0,84.963l-39.398,0l0,-161.912l37.051,0l0,34.467c12.071,-25.222 30.905,-37.832 56.5,-37.832Zm271.1,28.053c-11.289,0 -20.117,4.703 -26.488,14.107c-6.371,9.405 -9.557,23.46 -9.557,42.162c0,36.123 11.848,54.184 35.543,54.184c9.389,0 17.659,-3.848 24.812,-11.543c7.265,-7.802 10.898,-17.74 10.898,-29.816l0,-27.412c0,-13.145 -3.298,-23.352 -9.893,-30.619c-6.483,-7.374 -14.922,-11.062 -25.316,-11.062Z" style="fill:#4b4b4b;fill-rule:nonzero;"/></svg>