<?xml version="1.0" encoding="UTF-8" standalone="no"?>
<!--?xml version="1.0" encoding="utf-8"?-->

<!-- Generator: Adobe Illustrator 18.0.0, SVG Export Plug-In . SVG Version: 6.00 Build 0)  -->

<svg
   version="1.1"
   id="_x32_"
   x="0px"
   y="0px"
   viewBox="0 0 512 512"
   style="width: 256px; height: 256px; opacity: 1;"
   xml:space="preserve"
   sodipodi:docname="markdown.svg"
   inkscape:version="1.4 (86a8ad7, 2024-10-11)"
   xmlns:inkscape="http://www.inkscape.org/namespaces/inkscape"
   xmlns:sodipodi="http://sodipodi.sourceforge.net/DTD/sodipodi-0.dtd"
   xmlns="http://www.w3.org/2000/svg"
   xmlns:svg="http://www.w3.org/2000/svg"><defs
   id="defs1" /><sodipodi:namedview
   id="namedview1"
   pagecolor="#ffffff"
   bordercolor="#000000"
   borderopacity="0.25"
   inkscape:showpageshadow="2"
   inkscape:pageopacity="0.0"
   inkscape:pagecheckerboard="0"
   inkscape:deskcolor="#d1d1d1"
   inkscape:zoom="0.5473633"
   inkscape:cx="-10.961641"
   inkscape:cy="580.0535"
   inkscape:window-width="2256"
   inkscape:window-height="1398"
   inkscape:window-x="-11"
   inkscape:window-y="-11"
   inkscape:window-maximized="1"
   inkscape:current-layer="_x32_" />
<style
   type="text/css"
   id="style1">
	.st0{fill:#4B4B4B;}
</style>
<path
   id="path3"
   style="fill:#4b4b4b"
   d="M 133.44141 0.9140625 C 119.79516 0.77299947 100.73396 8.8080511 91.083984 18.457031 L 17.818359 91.722656 C 8.1683794 101.37264 0.27539063 120.4331 0.27539062 134.08008 L 0.27539062 488.10156 C 0.27539062 501.74854 11.438965 512.91406 25.085938 512.91406 L 313.70312 512.91406 L 428.18359 516.56641 L 486.91406 516.56641 C 500.56104 516.56641 511.72656 505.40284 511.72656 491.75586 L 511.72656 433.02344 L 511.72656 383.40039 L 511.72656 29.378906 C 511.72556 15.731934 500.56031 4.7074693 486.91406 4.5664062 L 133.44141 0.9140625 z M 440.63281 144.05469 L 478.85742 144.05469 L 478.85742 362.875 L 443.14648 362.875 L 443.14648 330.17188 C 433.31066 354.21808 416.65741 366.24023 393.18555 366.24023 C 372.39619 366.24023 356.4696 357.95774 345.4043 341.39258 C 334.33899 324.82741 328.80664 304.2544 328.80664 279.67383 C 328.80664 256.80322 334.56183 236.87156 346.07422 219.87891 C 357.5866 202.88625 373.96082 194.39062 395.19727 194.39062 C 416.99256 194.39062 432.13824 203.90256 440.63281 222.92578 L 440.63281 144.05469 z M 134.32422 197.59766 C 159.2491 197.59766 175.45667 210.20789 182.94531 235.42969 C 196.58134 210.20789 215.4146 197.59766 239.44531 197.59766 C 255.76385 197.59766 268.89616 202.46019 278.84375 212.18555 C 288.79134 221.9109 293.76562 233.98633 293.76562 248.41406 L 293.76562 362.875 L 253.69531 362.875 L 253.69531 262.04102 C 253.69531 241.0941 243.97155 230.62109 224.52344 230.62109 C 213.23459 230.62109 204.1813 234.57389 197.36328 242.48242 C 190.65703 250.39095 187.30469 262.20192 187.30469 277.91211 L 187.30469 362.875 L 146.73047 362.875 L 146.73047 262.04102 C 146.73047 240.77348 137.62293 230.13867 119.4043 230.13867 C 108.33899 230.13867 99.004708 234.41508 91.404297 242.96484 C 83.915657 251.51461 80.171875 263.16377 80.171875 277.91211 L 80.171875 362.875 L 40.773438 362.875 L 40.773438 200.96289 L 77.824219 200.96289 L 77.824219 235.42969 C 89.89546 210.20789 108.72872 197.59766 134.32422 197.59766 z M 405.42383 225.65039 C 394.13498 225.65039 385.30648 230.35307 378.93555 239.75781 C 372.56461 249.16255 369.37891 263.21732 369.37891 281.91992 C 369.37891 318.04267 381.22647 336.10352 404.92188 336.10352 C 414.31062 336.10352 422.58105 332.25534 429.73438 324.56055 C 436.99947 316.75889 440.63281 306.82068 440.63281 294.74414 L 440.63281 267.33203 C 440.63281 254.18677 437.33471 243.98019 430.74023 236.71289 C 424.25753 229.33872 415.81851 225.65039 405.42383 225.65039 z " />
</svg>
