<?xml version="1.0" encoding="UTF-8" standalone="no"?><!DOCTYPE svg PUBLIC "-//W3C//DTD SVG 1.1//EN" "http://www.w3.org/Graphics/SVG/1.1/DTD/svg11.dtd"><svg width="100%" height="100%" viewBox="0 0 512 512" version="1.1" xmlns="http://www.w3.org/2000/svg" xmlns:xlink="http://www.w3.org/1999/xlink" xml:space="preserve" xmlns:serif="http://www.serif.com/" style="fill-rule:evenodd;clip-rule:evenodd;stroke-linejoin:round;stroke-miterlimit:2;"><path id="path2" d="M133.441,0.914c-13.646,-0.141 -32.707,7.894 -42.357,17.543l-73.266,73.266c-9.65,9.65 -17.543,28.71 -17.543,42.357l-0,354.021c0,13.647 11.164,24.813 24.811,24.813l288.617,0l114.48,3.652l58.73,0c13.647,0 24.812,-11.164 24.812,-24.811l0,-462.377c-0.001,-13.647 -11.166,-24.671 -24.812,-24.812l-353.473,-3.652Zm132.197,64.836c42.085,0 76.899,11.138 104.441,33.412c27.543,22.079 41.314,49.629 41.314,82.65c0,16.413 -3.856,32.045 -11.568,46.895c-7.492,14.654 -16.084,26.085 -25.779,34.291c-9.695,8.011 -30.188,22.176 -61.477,42.496c-8.814,5.666 -14.432,11.236 -16.855,16.707c-2.424,5.276 -3.746,16.901 -3.967,34.877l-64.449,0l0,-39.566c0,-13.287 2.975,-23.741 8.924,-31.361c6.17,-7.62 19.5,-18.463 39.992,-32.531c31.288,-21.298 46.932,-43.866 46.932,-67.703c0,-17.976 -6.169,-32.24 -18.508,-42.791c-12.119,-10.551 -27.983,-15.826 -47.594,-15.826c-45.39,0 -72.162,27.843 -80.314,83.529l-72.053,-11.43c4.407,-41.618 21.704,-74.248 51.891,-97.891c30.407,-23.838 66.765,-35.758 109.07,-35.758Zm-38.34,332.945l77.67,0l0,73.271l-77.67,0l-0,-73.271Z" style="fill:#4b4b4b;fill-rule:nonzero;"/></svg>