<!--?xml version="1.0" encoding="utf-8"?-->
<!-- Generator: Adobe Illustrator 18.0.0, SVG Export Plug-In . SVG Version: 6.00 Build 0)  -->

<svg version="1.1" id="_x32_" xmlns="http://www.w3.org/2000/svg" xmlns:xlink="http://www.w3.org/1999/xlink" x="0px" y="0px" viewBox="0 0 512 512" style="width: 256px; height: 256px; opacity: 1;" xml:space="preserve">
<style type="text/css">
	.st0{fill:#4B4B4B;}
</style>
<g>
	<path class="st0" d="M459.016,310.974c2.854-4.345,5.574-8.673,8.138-12.981c0.678-1.135,1.342-2.264,2-3.396
		c2.067-3.57,4.034-7.119,5.912-10.658c0.883-1.657,1.764-3.314,2.606-4.964c1.481-2.917,2.874-5.812,4.232-8.706
		c0.996-2.118,2.007-4.236,2.939-6.338c1.014-2.296,1.942-4.57,2.88-6.848c1.059-2.562,2.137-5.125,3.102-7.661
		c0.602-1.584,1.126-3.145,1.692-4.72c5.289-14.674,9.079-28.898,11.625-42.564c0.367-1.952,0.77-3.918,1.088-5.846
		c0.272-1.661,0.476-3.286,0.713-4.93c0.418-2.868,0.821-5.724,1.137-8.538c0.09-0.821,0.158-1.626,0.24-2.44
		c7.219-69.789-15.403-122.45-24.965-138.364c-2.21-3.683-5.279-6.754-8.962-8.962c-28.792-17.498-160.96-96.01-333.03,76.059
		l-82.565,82.567c-6.324,6.322-4.851,17.986,3.19,26.028l51.751,28.176c6.016,4.543,11.97,9.148,17.863,13.936l78.576-58.442
		c23.39-21.055,64.95-3.192,86.496,18.356c21.548,21.546,39.413,63.106,18.418,86.556l-58.442,78.578
		c4.788,5.892,9.393,11.847,13.936,17.863l28.116,51.688c8.102,8.104,19.766,9.577,26.088,3.253c0,0,82.26-82.135,82.567-82.565
		c21.096-21.097,38.043-42.105,51.748-62.75C458.414,311.898,458.711,311.437,459.016,310.974z" style="fill: rgb(75, 75, 75);"></path>
	<path class="st0" d="M264.981,250.434c-9.698-9.698-23.326-14.978-28.728-15.101l-71.64,53.222l-48.867,36.343L7.459,433.186
		c-9.085,9.452-3.436,35.726,17.802,56.967c3.851,3.851,7.882,7.012,11.934,9.845c0.293,0.205,0.582,0.405,0.873,0.604
		c11.14,7.576,22.353,11.347,31.182,11.382c0.076,0,0.168,0.016,0.244,0.016h0.002c0.056,0,0.106-0.012,0.162-0.012
		c3.771-0.033,7.026-0.739,9.63-2.151c0.432-0.232,0.815-0.502,1.206-0.772c0.562-0.387,1.26-0.645,1.737-1.11l1.964-1.84
		L190.579,399.73l36.281-48.927l53.224-71.64C280.021,273.824,274.741,260.195,264.981,250.434z" style="fill: rgb(75, 75, 75);"></path>
</g>
</svg>
