<?xml version="1.0" encoding="UTF-8" standalone="no"?>
<!--?xml version="1.0" encoding="utf-8"?-->

<!-- Generator: Adobe Illustrator 18.1.1, SVG Export Plug-In . SVG Version: 6.00 Build 0)  -->

<svg
   version="1.1"
   id="_x32_"
   x="0px"
   y="0px"
   viewBox="0 0 512 512"
   style="width: 256px; height: 256px; opacity: 1;"
   xml:space="preserve"
   sodipodi:docname="Spinner1.svg"
   inkscape:version="1.4 (86a8ad7, 2024-10-11)"
   xmlns:inkscape="http://www.inkscape.org/namespaces/inkscape"
   xmlns:sodipodi="http://sodipodi.sourceforge.net/DTD/sodipodi-0.dtd"
   xmlns="http://www.w3.org/2000/svg"
   xmlns:svg="http://www.w3.org/2000/svg"><defs
   id="defs8" /><sodipodi:namedview
   id="namedview8"
   pagecolor="#ffffff"
   bordercolor="#000000"
   borderopacity="0.25"
   inkscape:showpageshadow="2"
   inkscape:pageopacity="0.0"
   inkscape:pagecheckerboard="0"
   inkscape:deskcolor="#d1d1d1"
   showgrid="false"
   inkscape:zoom="2.1816406"
   inkscape:cx="255.77082"
   inkscape:cy="256"
   inkscape:window-width="2256"
   inkscape:window-height="1398"
   inkscape:window-x="-11"
   inkscape:window-y="-11"
   inkscape:window-maximized="1"
   inkscape:current-layer="_x32_" />
<style
   type="text/css"
   id="style1">
	.st0{fill:#4B4B4B;}
</style>
<g
   id="g8"
   transform="rotate(15,256,256)">
	<path
   class="st0"
   d="m 256,0 c -23.357,0 -42.297,18.932 -42.297,42.288 0,23.358 18.94,42.288 42.297,42.288 23.357,0 42.279,-18.93 42.279,-42.288 C 298.279,18.932 279.357,0 256,0 Z"
   style="fill:#4b4b4b"
   id="path1" />
	<path
   class="st0"
   d="m 256,427.424 c -23.357,0 -42.297,18.931 -42.297,42.288 0,23.358 18.94,42.288 42.297,42.288 23.357,0 42.279,-18.93 42.279,-42.288 0,-23.357 -18.922,-42.288 -42.279,-42.288 z"
   style="fill:#4b4b4b"
   id="path2" />
	<path
   class="st0"
   d="m 74.974,74.983 c -16.52,16.511 -16.52,43.286 0,59.806 16.52,16.52 43.287,16.52 59.806,0 16.52,-16.511 16.52,-43.286 0,-59.806 -16.519,-16.52 -43.286,-16.52 -59.806,0 z"
   style="fill:#4b4b4b"
   id="path3" />
	<path
   class="st0"
   d="m 377.203,377.211 c -16.503,16.52 -16.503,43.296 0,59.815 16.519,16.52 43.304,16.52 59.806,0 16.52,-16.51 16.52,-43.295 0,-59.815 -16.52,-16.519 -43.287,-16.511 -59.806,0 z"
   style="fill:#4b4b4b"
   id="path4" />
	<path
   class="st0"
   d="m 84.567,256 c 0.018,-23.348 -18.922,-42.279 -42.279,-42.279 -23.357,-0.009 -42.297,18.932 -42.279,42.288 -0.018,23.348 18.904,42.279 42.279,42.279 23.357,0 42.279,-18.93 42.279,-42.288 z"
   style="fill:#4b4b4b"
   id="path5" />
	<path
   class="st0"
   d="m 469.712,213.712 c -23.357,0 -42.279,18.941 -42.297,42.288 0,23.358 18.94,42.288 42.297,42.297 23.357,0 42.297,-18.94 42.279,-42.297 0.018,-23.348 -18.922,-42.288 -42.279,-42.288 z"
   style="fill:#4b4b4b"
   id="path6" />
	<path
   class="st0"
   d="m 74.991,377.22 c -16.519,16.511 -16.519,43.296 0,59.806 16.503,16.52 43.27,16.52 59.789,0 16.52,-16.519 16.52,-43.295 0,-59.815 -16.502,-16.519 -43.269,-16.519 -59.789,0.009 z"
   style="fill:#4b4b4b"
   id="path7" />
	<path
   class="st0"
   d="m 437.026,134.798 c 16.52,-16.52 16.52,-43.304 0,-59.824 -16.519,-16.511 -43.304,-16.52 -59.823,0 -16.52,16.52 -16.503,43.295 0,59.815 16.519,16.52 43.304,16.52 59.823,0.009 z"
   style="fill:#4b4b4b"
   id="path8" />
</g>
</svg>
