<!--?xml version="1.0" encoding="utf-8"?-->
<svg version="1.1" xmlns="http://www.w3.org/2000/svg" viewBox="0 0 100 100" style="width: 24px; height: 24px; opacity: 1;">
  <style type="text/css">
    .st0{fill:#4B4B4B;}
  </style>
  <g>
    <path class="st0" d="M50,10C27.9,10,10,27.9,10,50c0,11.1,4.5,21.1,11.7,28.1l-5.8-5.8c-5.5-5.5-5.5-14.3,0-19.8s14.3-5.5,19.8,0
      l5.8,5.8C35.1,54.5,41.9,50,50,50c22.1,0,40,17.9,40,40S72.1,90,50,90s-40-17.9-40-40h-8c0,26.5,21.5,48,48,48s48-21.5,48-48
      S76.5,10,50,10z"/>
    <path class="st0" d="M50,20c-16.5,0-30,13.5-30,30s13.5,30,30,30s30-13.5,30-30S66.5,20,50,20z M50,70c-11,0-20-9-20-20
      s9-20,20-20s20,9,20,20S61,70,50,70z"/>
  </g>
</svg>
