<?xml version="1.0" encoding="UTF-8" standalone="no"?><!DOCTYPE svg PUBLIC "-//W3C//DTD SVG 1.1//EN" "http://www.w3.org/Graphics/SVG/1.1/DTD/svg11.dtd"><svg width="100%" height="100%" viewBox="0 0 512 512" version="1.1" xmlns="http://www.w3.org/2000/svg" xmlns:xlink="http://www.w3.org/1999/xlink" xml:space="preserve" xmlns:serif="http://www.serif.com/" style="fill-rule:evenodd;clip-rule:evenodd;stroke-linejoin:round;stroke-miterlimit:2;"><path id="path3" d="M133.441,0.914c-13.646,-0.141 -32.707,7.894 -42.357,17.543l-73.266,73.266c-9.65,9.65 -17.543,28.71 -17.543,42.357l-0,354.021c0,13.647 11.164,24.813 24.811,24.813l288.617,0l114.48,3.652l58.73,0c13.647,0 24.812,-11.164 24.812,-24.811l0,-462.377c-0.001,-13.647 -11.166,-24.671 -24.812,-24.812l-353.473,-3.652Zm-52.637,122.822l370.129,0c3.691,0 6.684,3.252 6.684,7.266l0,25.527l-0.002,0c0,4.014 -2.993,7.266 -6.684,7.266l-370.127,0c-3.691,0 -6.684,-3.254 -6.684,-7.266l0,-25.527c0,-4.014 2.993,-7.266 6.684,-7.266Zm0,124.869l370.129,0c3.691,0 6.684,3.254 6.684,7.266l0,25.525l-0.002,0c0,4.014 -2.993,7.27 -6.684,7.27l-370.127,0c-3.691,0 -6.684,-3.254 -6.684,-7.27l0,-25.525c0,-4.014 2.993,-7.266 6.684,-7.266Zm-0.926,124.867l273.109,0c3.18,0 5.756,2.802 5.756,6.26l0,27.543c0,3.458 -2.576,6.26 -5.756,6.26l-273.109,0c-3.178,0 -5.758,-2.803 -5.758,-6.26l0,-27.543c0,-3.458 2.579,-6.26 5.758,-6.26Z" style="fill:#4b4b4b;fill-rule:nonzero;"/></svg>